HIERARCHY
ROOT Hips
{
	OFFSET 0.000000 0.000000 0.000000 
	CHANNELS 6 Xposition Yposition Zposition Zrotation Yrotation Xrotation
	JOINT LeftUpLeg
	{
		OFFSET 1.363060 -1.794630 0.839290 
		CHANNELS 3 Zrotation Yrotation Xrotation
		JOINT LeftLeg
		{
			OFFSET 2.448110 -6.726130 0.000000 
			CHANNELS 3 Zrotation Yrotation Xrotation
			JOINT LeftFoot
			{
				OFFSET 2.562200 -7.039590 0.000000 
				CHANNELS 3 Zrotation Yrotation Xrotation
				JOINT LeftToeBase
				{
					OFFSET 0.157640 -0.433110 2.322550 
					CHANNELS 3 Zrotation Yrotation Xrotation
					End Site
					{
						OFFSET 0.000000 0.000000 0.000000 
					}
				}
			}
		}
	}
	JOINT RightUpLeg
	{
		OFFSET -1.305520 -1.794630 0.839290 
		CHANNELS 3 Zrotation Yrotation Xrotation
		JOINT RightLeg
		{
			OFFSET -2.542530 -6.985550 0.000000 
			CHANNELS 3 Zrotation Yrotation Xrotation
			JOINT RightFoot
			{
				OFFSET -2.568260 -7.056230 0.000000 
				CHANNELS 3 Zrotation Yrotation Xrotation
				JOINT RightToeBase
				{
					OFFSET -0.164730 -0.452590 2.363150 
					CHANNELS 3 Zrotation Yrotation Xrotation
					End Site
					{
						OFFSET 0.000000 0.000000 0.000000 
					}
				}
			}
		}
	}
	JOINT Spine
	{
		OFFSET 0.028270 2.035590 -0.193380 
		CHANNELS 3 Zrotation Yrotation Xrotation
		JOINT Spine1
		{
			OFFSET 0.056720 2.048850 -0.042750 
			CHANNELS 3 Zrotation Yrotation Xrotation
			JOINT Neck1
			{
				OFFSET -0.054170 1.746240 0.172020 
				CHANNELS 3 Zrotation Yrotation Xrotation
				JOINT Head
				{
					OFFSET 0.104070 1.761360 -0.123970 
					CHANNELS 3 Zrotation Yrotation Xrotation
					End Site
					{
						OFFSET 0.000000 0.000000 0.000000 
					}
				}
			}
			JOINT LeftArm
			{
				OFFSET 3.362410 1.200890 -0.311210 
				CHANNELS 3 Zrotation Yrotation Xrotation
				JOINT LeftForeArm
				{
					OFFSET 4.983000 -0.000000 -0.000000 
					CHANNELS 3 Zrotation Yrotation Xrotation
					JOINT LeftHand
					{
						OFFSET 3.483560 -0.000000 -0.000000 
						CHANNELS 3 Zrotation Yrotation Xrotation
						JOINT LeftHandIndex1
						{
							OFFSET 0.715260 -0.000000 -0.000000 
							CHANNELS 3 Zrotation Yrotation Xrotation
							End Site
							{
								OFFSET 0.000000 0.000000 0.000000 
							}
						}
					}
				}
			}
			JOINT RightArm
			{
				OFFSET -3.136600 1.374050 -0.404650 
				CHANNELS 3 Zrotation Yrotation Xrotation
				JOINT RightForeArm
				{
					OFFSET -5.241900 -0.000000 -0.000000 
					CHANNELS 3 Zrotation Yrotation Xrotation
					JOINT RightHand
					{
						OFFSET -3.444170 -0.000000 -0.000000 
						CHANNELS 3 Zrotation Yrotation Xrotation
						JOINT RightHandIndex1
						{
							OFFSET -0.622530 -0.000000 -0.000000 
							CHANNELS 3 Zrotation Yrotation Xrotation
							End Site
							{
								OFFSET 0.000000 0.000000 0.000000 
							}
						}
					}
				}
			}
		}
	}
}
MOTION
Frames: 18
Frame Time: 0.041667
15.605836 17.849476 -15.265175 2.161746 -2.522256 2.922864 -20.106963 -2.783843 -7.431523 0.370495 6.190165 18.908600 0.243177 0.469776 -3.029123 0.039900 -1.289300 -3.545100 5.403311 19.984234 -47.343541 -4.894929 -11.230257 37.998732 0.530941 -4.243872 -3.595789 -0.121300 2.245100 -6.183400 0.777176 1.404965 1.089738 -2.814383 0.539193 -1.411867 4.360561 -5.300799 11.522331 1.165800 -2.468500 7.040300 -92.782339 4.250993 -6.199419 10.345090 -9.631038 -0.658753 -1.696988 -1.418615 9.339558 -7.125000 0.000000 0.000000 83.770451 46.178727 14.114198 -19.170668 27.346264 -4.749996 0.618856 -0.542598 -11.413648 7.125000 0.000000 0.000000 
15.608873 17.861037 -15.132712 2.360002 -2.030984 2.900077 -20.364478 -2.719135 -6.213633 0.200889 5.744243 17.579874 0.154068 0.850270 -2.763227 0.087700 -1.910100 -5.257400 4.930503 19.707602 -47.969862 -4.683345 -11.024538 37.109334 0.536523 -4.321366 -3.865612 -0.134700 2.365800 -6.517800 0.799212 1.322264 0.930242 -2.779307 0.506987 -1.627923 4.462488 -5.400833 11.091045 1.255400 -2.544400 6.744300 -93.095834 5.320854 -9.537109 10.038247 -9.374566 -0.602637 -1.822691 -1.235830 12.469999 -7.125000 0.000000 0.000000 83.139679 46.417275 13.851778 -19.459777 27.739417 -4.898082 0.616216 -0.531738 -11.482530 7.125000 0.000000 0.000000 
15.610735 17.873284 -15.004462 2.663733 -1.647730 2.892290 -20.741674 -2.881763 -5.070504 0.071495 5.373406 16.493041 0.036629 1.377768 -2.790197 0.156200 -2.546700 -7.019100 4.186662 19.756346 -48.428908 -4.435035 -10.744374 36.004109 0.571917 -4.546033 -3.844496 -0.087600 1.909400 -5.255500 0.787062 1.255445 0.777978 -2.603728 0.492593 -1.842475 4.589837 -5.508888 10.763076 1.333700 -2.611600 6.486200 -93.500817 7.349384 -10.280600 10.265983 -9.774692 -0.639737 -1.795586 -1.266745 12.677801 -7.125000 0.000000 0.000000 82.484797 46.354688 14.126456 -19.948623 28.390126 -5.158283 0.614253 -0.506654 -12.186119 7.125000 0.000000 0.000000 
15.603681 17.883669 -14.879445 2.856864 -1.268203 3.103684 -20.925242 -3.215202 -4.181121 -0.051154 5.011994 15.442624 -0.061718 1.814782 -2.757186 0.147800 -2.477400 -6.826900 3.383595 20.079343 -49.019277 -4.179057 -10.418726 34.806269 0.635358 -4.936942 -3.729629 -0.063100 1.621000 -4.459300 0.727758 1.171816 0.699719 -2.444423 0.477178 -1.898773 4.604617 -5.569920 10.951106 1.310700 -2.626900 6.540300 -94.126859 10.617539 -8.000796 11.195482 -11.085103 -0.832631 -1.609282 -1.449973 9.720721 -7.125000 0.000000 0.000000 81.942191 46.580525 14.460699 -20.386351 28.962688 -5.394139 0.618838 -0.491053 -12.995952 7.125000 0.000000 0.000000 
15.595255 17.897288 -14.756584 2.709594 -1.154392 3.557371 -20.749656 -3.552871 -3.605032 -0.177040 4.664974 14.402277 -0.206882 2.467782 -2.776534 0.144700 -2.451400 -6.754900 2.841865 20.770320 -49.744912 -3.928603 -10.038647 33.540273 0.761188 -5.713488 -3.480099 -0.040200 1.293500 -3.556700 0.705073 1.160243 0.614142 -2.534948 0.463997 -1.791979 4.444982 -5.464227 11.074838 1.176400 -2.553100 6.644000 -93.863164 10.721854 -10.545871 10.737174 -10.554395 -0.732928 -1.712046 -1.307710 11.976769 -7.125000 0.000000 0.000000 81.512967 47.360622 14.276668 -20.548546 29.174090 -5.478897 0.618530 -0.493556 -13.047916 7.125000 0.000000 0.000000 
15.588984 17.909339 -14.633429 2.518118 -0.885930 3.887917 -20.540443 -3.761579 -2.933212 -0.287389 4.345941 13.427427 -0.339765 3.061401 -2.746782 0.162700 -2.599100 -7.164600 2.357138 21.251730 -50.309465 -3.676005 -9.652295 32.237349 0.923295 -6.719710 -3.182985 -0.019500 0.902300 -2.480000 0.669041 1.124978 0.578825 -2.661596 0.402458 -1.555857 4.280164 -5.462620 10.886990 1.063300 -2.544600 6.623200 -92.076920 7.478222 -19.745252 8.679203 -8.181567 -0.416132 -2.053967 -0.784715 21.618024 -7.125000 0.000000 0.000000 80.670169 48.140272 13.768407 -20.700050 29.376612 -5.561535 0.610973 -0.497665 -13.195199 7.125000 0.000000 0.000000 
15.585359 17.916001 -14.504199 2.682986 -0.311994 3.925200 -20.698540 -3.861758 -1.945846 -0.366205 4.045587 12.554390 -0.371358 3.206107 -2.651205 0.144300 -2.448200 -6.745900 1.676384 21.211955 -50.544451 -3.418567 -9.301804 30.952800 1.011996 -7.247870 -2.891997 -0.016400 0.827500 -2.274300 0.573317 0.923543 0.634946 -2.687615 0.307569 -1.505516 4.227098 -5.469731 10.666792 1.008600 -2.544900 6.524100 -92.489240 8.949876 -20.832938 8.945628 -8.662702 -0.448690 -2.024962 -0.796921 22.410598 -7.125000 0.000000 0.000000 80.242207 48.512456 14.011534 -21.105937 29.886750 -5.778774 0.630585 -0.478334 -13.721312 7.125000 0.000000 0.000000 
15.578991 17.919332 -14.374186 2.726429 -0.084895 3.991658 -20.751315 -3.954799 -1.026121 -0.446328 3.737720 11.650185 -0.407031 3.382880 -2.688967 0.130500 -2.328400 -6.414000 1.208852 21.463551 -50.736388 -3.194369 -8.949729 29.755435 1.091220 -7.680503 -2.418499 -0.016000 0.817200 -2.245900 0.484268 0.823093 0.493664 -2.719359 0.260996 -1.641999 4.424045 -5.444833 10.708068 1.080900 -2.517000 6.532300 -92.283632 9.824221 -23.501778 8.740356 -8.590443 -0.420029 -1.967705 -0.677389 24.843245 -7.125000 0.000000 0.000000 80.091318 48.594204 14.482874 -21.641576 30.548523 -6.071203 0.662396 -0.459333 -14.104214 7.125000 0.000000 0.000000 
15.566156 17.915805 -14.242017 2.531849 0.080598 4.107706 -20.544813 -4.080978 -0.174626 -0.527178 3.436254 10.738785 -0.475811 3.705850 -2.667607 0.134100 -2.360100 -6.501800 0.869882 22.008190 -50.887535 -2.999593 -8.601162 28.640809 1.227742 -8.480399 -2.030719 -0.007800 0.570500 -1.567600 0.500996 0.957026 0.321003 -2.756254 0.327976 -1.793932 4.647529 -5.603683 10.711991 1.186800 -2.586800 6.537600 -91.537944 10.092527 -26.388584 8.231013 -8.129482 -0.364012 -1.991541 -0.579015 27.727064 -7.125000 0.000000 0.000000 79.287655 48.844345 13.727021 -21.727423 30.677946 -6.124053 0.643338 -0.489449 -13.958789 7.125000 0.000000 0.000000 
15.555771 17.905714 -14.108084 2.662810 0.578590 4.200512 -20.663932 -4.259572 0.644517 -0.575027 3.208393 10.081526 -0.512088 3.875792 -2.652135 0.160700 -2.582600 -7.118600 0.114529 22.210856 -50.990512 -2.794455 -8.268444 27.491126 1.384993 -9.433876 -1.696653 -0.001300 0.236000 -0.648500 0.461294 1.076601 0.391044 -2.681673 0.417023 -1.819412 4.389680 -5.824560 10.418940 1.056300 -2.708300 6.399600 -92.230503 13.513089 -18.162158 9.501143 -9.352103 -0.509141 -1.808570 -1.131759 18.928596 -7.125000 0.000000 0.000000 78.155054 49.104553 12.669142 -21.760232 30.750749 -6.151379 0.607195 -0.510249 -13.735136 7.125000 0.000000 0.000000 
15.545973 17.897484 -13.973956 2.806579 0.944041 4.336790 -20.810600 -3.975506 1.166570 -0.603414 3.022309 9.564167 -0.497251 3.818018 -2.577604 0.236800 -3.131800 -8.646000 -0.601776 22.457033 -51.057430 -2.595907 -7.923998 26.342921 1.544982 -10.380318 -1.570068 -0.000400 0.133400 -0.366600 0.415516 1.010833 0.471439 -2.598005 0.384319 -1.683669 4.074361 -5.880570 10.246304 0.892800 -2.743600 6.345300 -92.271898 14.119739 -20.192997 9.498733 -9.509703 -0.507379 -1.754383 -1.084819 20.482345 -7.125000 0.000000 0.000000 77.506759 49.543607 12.223541 -21.824959 30.838952 -6.190856 0.595033 -0.502562 -13.507430 7.125000 0.000000 0.000000 
15.533726 17.893075 -13.841297 2.612260 1.116865 4.427388 -20.608847 -3.459564 1.767682 -0.650127 2.752913 8.780955 -0.507800 3.876648 -2.327502 0.313400 -3.599000 -9.951100 -1.068119 23.181960 -50.995257 -2.437185 -7.597801 25.370229 1.735037 -11.448590 -2.064043 -0.000100 0.078600 -0.216100 0.595675 0.925755 0.529461 -2.537597 0.337153 -1.557873 4.092068 -5.794307 10.087119 0.936600 -2.714000 6.329200 -92.306747 13.934511 -25.396677 9.093844 -9.313637 -0.454545 -1.779704 -0.818311 25.144145 -7.125000 0.000000 0.000000 77.182150 50.094471 11.961160 -21.902070 30.933980 -6.233785 0.589016 -0.494788 -13.126571 7.125000 0.000000 0.000000 
15.525692 17.885139 -13.707462 2.619364 1.486185 4.392501 -20.592267 -3.045830 2.758924 -0.704908 2.365937 7.677562 -0.506958 3.885678 -1.957462 0.346700 -3.783300 -10.467700 -1.741748 23.664301 -50.872969 -2.303601 -7.342646 24.583755 1.878286 -12.239530 -2.722369 -0.003200 -0.363700 0.999200 0.709558 0.802576 0.664978 -2.464941 0.261966 -1.382374 4.240959 -5.791062 9.775752 1.044400 -2.725400 6.249500 -92.087005 13.287686 -32.358571 8.379149 -8.895479 -0.382797 -1.894193 -0.537403 31.864103 -7.125000 0.000000 0.000000 76.519106 50.647983 11.724230 -21.982922 31.036896 -6.279617 0.587129 -0.489221 -13.019812 7.125000 0.000000 0.000000 
15.521675 17.870540 -13.561577 3.068773 2.019208 4.352360 -21.011300 -2.722362 4.109812 -0.763812 1.804724 6.127532 -0.529535 3.991902 -1.417588 0.371600 -3.915500 -10.839000 -2.497020 23.448919 -50.866765 -2.187240 -7.177608 23.968985 1.877242 -12.240852 -3.056340 -0.000700 -0.176500 0.484800 0.537366 0.662499 0.744775 -2.374464 0.175128 -1.241764 4.216241 -5.871256 9.424929 1.027500 -2.771000 6.095300 -91.611594 12.973359 -32.681540 7.919315 -8.262479 -0.334648 -2.019296 -0.523545 32.155656 -7.125000 0.000000 0.000000 75.786880 50.900135 11.461817 -21.976509 31.034985 -6.273231 0.598818 -0.496545 -13.190320 7.125000 0.000000 0.000000 
15.511388 17.859567 -13.416279 3.397780 2.576336 4.533446 -21.216836 -2.367586 5.831798 -0.846636 0.802328 3.351244 -0.622339 4.452870 -0.270326 0.426300 -4.190500 -11.613300 -3.244055 23.411027 -51.029839 -2.100509 -7.055783 23.519015 1.885731 -12.308231 -3.590198 -0.000000 -0.042000 0.115500 0.478829 0.582866 0.630353 -2.206415 0.125983 -1.252817 4.197340 -5.987612 9.363128 1.037600 -2.836900 6.046000 -91.326157 13.232628 -32.902410 7.647178 -7.878794 -0.306321 -2.045197 -0.466928 32.357817 -7.125000 0.000000 0.000000 74.995755 50.817339 10.922546 -21.918143 30.978849 -6.237775 0.606380 -0.517893 -13.175357 7.125000 0.000000 0.000000 
15.494046 17.852219 -13.276174 3.456976 3.142664 4.728702 -21.092139 -2.117356 7.181182 -0.873476 0.049068 1.255478 -0.647388 4.648650 0.656134 0.529100 -4.661400 -12.945400 -3.983146 23.767311 -51.071327 -2.032701 -6.933240 23.140732 1.951249 -12.696278 -4.356793 -0.023900 -0.997300 2.741500 0.602682 0.475203 0.545246 -1.998972 0.070299 -1.267272 4.135308 -6.116104 9.520734 1.051400 -2.912500 6.134800 -91.332074 13.743788 -33.244426 7.580360 -7.809143 -0.298497 -2.074771 -0.506699 32.635833 -7.125000 0.000000 0.000000 74.239627 50.751210 10.540902 -21.974356 31.065519 -6.274945 0.594770 -0.523887 -13.132835 7.125000 0.000000 0.000000 
15.478272 17.836641 -13.134991 3.422538 3.487970 4.793004 -20.909499 -1.854561 7.527092 -0.860357 0.052619 1.262502 -0.542579 4.178483 0.819303 0.636500 -5.104500 -14.206800 -4.401801 24.134902 -50.916766 -1.959444 -6.771783 22.671934 2.005099 -12.977458 -4.645978 -0.063300 -1.622800 4.464200 0.639265 0.360702 0.585403 -1.910229 0.014210 -1.205740 4.172999 -5.998791 9.495414 1.060600 -2.847400 6.161200 -91.189914 14.267518 -33.819693 7.623441 -7.951990 -0.305873 -2.094303 -0.563001 33.035434 -7.125000 0.000000 0.000000 73.970017 50.906157 9.996578 -22.111733 31.252066 -6.384319 0.501221 -0.490290 -11.778917 7.125000 0.000000 0.000000 
15.465731 17.817634 -12.995866 3.370541 3.850227 4.916754 -20.693660 -1.638658 7.811477 -0.848634 0.056226 1.269687 -0.428588 3.659671 0.989381 0.697500 -5.338400 -14.876400 -4.734691 24.422406 -50.711691 -1.873994 -6.583976 22.107154 2.082389 -13.372349 -4.722130 -0.063600 -1.626900 4.475800 0.666172 0.213679 0.557428 -1.864440 -0.061116 -1.154395 4.507332 -5.757138 9.612070 1.185700 -2.701000 6.229800 -91.041761 14.587447 -34.433830 7.590537 -7.976800 -0.307248 -2.111936 -0.538052 33.462063 -7.125000 0.000000 0.000000 73.921890 50.961014 9.918063 -22.183260 31.337339 -6.424142 0.504208 -0.488722 -11.660740 7.125000 0.000000 0.000000 
